HIERARCHY
ROOT Hips
{
	OFFSET 0.000000 0.000000 0.000000
	CHANNELS 6 Xposition Yposition Zposition Zrotation Xrotation Yrotation
	JOINT Spine
	{
		OFFSET 1.350495 16.016602 4.118958
		CHANNELS 3 Zrotation Xrotation Yrotation
		JOINT Chest
		{
			OFFSET 2.741913 32.518555 8.362731
			CHANNELS 3 Zrotation Xrotation Yrotation
			JOINT Neck
			{
				OFFSET -1.918793 2.441406 4.089355
				CHANNELS 3 Zrotation Xrotation Yrotation
				JOINT Head
				{
					OFFSET -5.257094 11.312509 15.651098
					CHANNELS 3 Zrotation Xrotation Yrotation
					End Site
					{
						OFFSET 0.0 5.0 0.0
					}
				}
			}
			JOINT LeftShoulder
			{
				OFFSET 12.381201 -2.398264 9.285557
				CHANNELS 3 Zrotation Xrotation Yrotation
				JOINT LeftArm
				{
					OFFSET 0.887842 -2.582204 -2.657139
					CHANNELS 3 Zrotation Xrotation Yrotation
					JOINT LeftForeArm
					{
						OFFSET 7.866356 -23.362816 -9.519958
						CHANNELS 3 Zrotation Xrotation Yrotation
						JOINT LeftHand
						{
							OFFSET -12.321922 -13.551247 13.511658
							CHANNELS 3 Zrotation Xrotation Yrotation
							End Site
							{
								OFFSET 0.0 5.0 0.0
							}
						}
					}
				}
			}
			JOINT RightShoulder
			{
				OFFSET -14.172624 7.069051 -4.326944
				CHANNELS 3 Zrotation Xrotation Yrotation
				JOINT RightArm
				{
					OFFSET 0.903581 -2.088583 -2.301474
					CHANNELS 3 Zrotation Xrotation Yrotation
					JOINT RightForeArm
					{
						OFFSET -3.510840 -7.869065 -24.793068
						CHANNELS 3 Zrotation Xrotation Yrotation
						JOINT RightHand
						{
							OFFSET 0.764258 -20.841873 8.997169
							CHANNELS 3 Zrotation Xrotation Yrotation
							End Site
							{
								OFFSET 0.0 5.0 0.0
							}
						}
					}
				}
			}
		}
	}
	JOINT LeftUpLeg
	{
		OFFSET 6.796265 -0.830078 3.393555
		CHANNELS 3 Zrotation Xrotation Yrotation
		JOINT LeftLeg
		{
			OFFSET -0.982666 -41.064453 -3.950500
			CHANNELS 3 Zrotation Xrotation Yrotation
			JOINT LeftFoot
			{
				OFFSET 6.940891 -30.672318 -22.959991
				CHANNELS 3 Zrotation Xrotation Yrotation
				End Site
				{
					OFFSET 0.0 5.0 0.0
				}
			}
		}
	}
	JOINT RightUpLeg
	{
		OFFSET -6.796265 0.830078 -3.393555
		CHANNELS 3 Zrotation Xrotation Yrotation
		JOINT RightLeg
		{
			OFFSET -8.325195 -40.136719 4.507446
			CHANNELS 3 Zrotation Xrotation Yrotation
			JOINT RightFoot
			{
				OFFSET -0.533278 -37.744335 -9.163093
				CHANNELS 3 Zrotation Xrotation Yrotation
				End Site
				{
					OFFSET 0.0 5.0 0.0
				}
			}
		}
	}
}
MOTION
Frames: 6
Frame Time: 0.033333
535.126221 77.050972 -1469.690186 0.000000 0.000000 0.000000 -0.000000 0.000000 -0.000000 0.000000 0.000000 -0.000000 -0.000000 0.000000 0.000000 0.000000 0.000000 -0.000000 0.000000 0.000000 -0.000000 -0.000000 -0.000000 -0.000000 0.000000 0.000000 0.000000 -0.000000 0.000000 0.000000 -0.000000 0.000000 -0.000000 -0.000000 0.000000 0.000000 0.000000 0.000000 -0.000000 -0.000000 -0.000000 -0.000000 0.000000 0.000000 0.000000 0.000000 -0.000000 0.000000 0.000000 0.000000 -0.000000 0.000000 0.000000 -0.000000 -0.000000 0.000000 0.000000 -0.000000 0.000000 0.000000
532.077759 76.830696 -1463.263306 -0.727168 -0.821268 0.722087 0.570084 0.008172 0.080386 -0.035290 -0.438108 0.981205 0.000001 -1.073599 0.000002 -0.927218 0.837546 -1.574402 1.744676 -0.207636 -0.800484 -0.000000 0.000000 0.000000 -0.223818 0.000002 -0.000002 0.000002 -0.391677 -0.000001 -0.338550 -0.150057 1.619456 -0.000000 0.000000 -0.000000 0.895245 -0.000006 0.000002 0.000004 1.161024 -0.000002 -10.078791 -1.250788 -1.738764 12.141779 0.009593 -0.002411 0.688431 -1.008507 -0.753530 -0.233959 -1.292000 1.451337 -0.167858 -0.000138 -0.001393 1.088689 -0.137036 0.211514
534.953491 78.146599 -1473.191040 -0.554483 -0.167161 0.640692 0.763456 0.441407 0.140761 0.605065 -0.193505 0.461607 -0.000001 -0.706407 0.000002 1.450340 0.544691 -0.827845 1.580801 -1.754196 -1.976114 -0.000000 -0.000000 -0.000000 0.055954 0.000000 -0.000005 -0.000003 -3.259253 0.000003 1.496826 0.632544 1.588810 -0.000000 -0.000000 -0.000000 -0.223813 -0.000004 0.000002 0.000005 0.671433 -0.000000 -7.129906 -2.403278 -1.560530 4.867890 0.003870 0.001971 0.449199 -2.861267 -0.101835 1.955242 -2.841511 1.018210 -2.587825 -0.002062 0.002085 0.523492 0.718904 0.451578
531.987793 77.630173 -1466.803101 -1.465478 -0.966795 1.268213 0.766947 0.807413 0.985299 0.664629 -0.192068 0.691076 -0.000004 -1.047368 0.000001 0.611848 0.428892 -1.419228 2.550403 -1.185686 -2.192286 -0.000000 -0.000000 -0.000000 -0.419651 0.000001 0.000001 0.000001 -2.979497 0.000002 0.945567 0.622641 2.405431 -0.000000 0.000000 0.000000 1.007153 -0.000002 0.000000 -0.000003 0.335716 -0.000003 -13.365446 -2.547671 -2.862032 8.113171 0.006435 -0.016576 1.528379 -6.004074 0.005203 3.392985 -3.863259 2.000171 -2.028295 -0.001617 -0.016147 -0.389520 -0.130130 0.395319
532.063171 77.658775 -1467.156860 -1.693501 -1.015134 2.559049 0.475485 0.495108 1.166104 1.303491 -0.715914 1.005997 -0.000003 -0.855031 0.000002 0.484737 0.310564 -0.955110 4.505211 0.209807 -2.052186 -0.000000 -0.000000 -0.000000 -1.342876 0.000003 -0.000006 -0.000008 -5.147669 -0.000001 0.798715 0.475437 3.074097 -0.000000 -0.000000 0.000000 1.175015 -0.000002 0.000003 0.000001 0.657450 -0.000001 -11.263264 -4.079108 -3.372955 -1.175019 -0.000937 -0.007248 1.976482 -7.080915 0.754251 6.247653 -3.844429 2.067312 -2.811631 -0.002238 -0.007291 -1.033328 -0.892842 0.727656
528.626404 76.789856 -1458.785645 -2.221972 -0.863661 1.183384 0.991709 0.915932 1.625486 1.224307 -0.773754 0.875619 -0.000002 -0.751875 0.000005 0.453614 0.603490 -0.523351 5.131197 -0.147857 -2.490465 0.000000 0.000000 -0.000000 -0.419651 0.000000 -0.000003 -0.000002 -3.385148 0.000003 1.832376 0.312736 4.446379 -0.000000 0.000000 -0.000000 1.454778 -0.000005 0.000003 -0.000001 0.993167 -0.000001 -13.943645 -2.627535 -3.306542 -5.861071 -0.004661 -0.003652 2.917303 -5.366480 1.254464 5.162374 -2.112979 2.852035 -0.979177 -0.000777 -0.003424 -3.027517 -1.035702 -0.137649
